<?xml version="1.0" encoding="UTF-8"?><svg id="Layer_1" xmlns="http://www.w3.org/2000/svg" viewBox="0 0 924 248"><defs><style>.cls-1{fill:#fff;}</style></defs><path class="cls-1" d="M51.59,236.45c-.27-.15-.58-.45-.58-1.01v-32.13c0-2.43,1.31-4.7,3.42-5.92l27.83-16.08c.21-.12,.41-.17,.58-.17,.23,0,.43,.08,.59,.17,.27,.15,.58,.45,.58,1.01v32.14c0,2.44-1.31,4.7-3.42,5.92l-27.83,16.07c-.48,.28-.9,.15-1.17,0Zm-8.5-46.86c2.11,1.22,4.73,1.22,6.84,0l27.83-16.07c.48-.28,.58-.7,.58-1.01s-.1-.73-.58-1.01l-27.83-16.07c-1.05-.61-2.24-.91-3.42-.91s-2.37,.3-3.42,.91l-27.84,16.07c-.48,.28-.58,.7-.58,1.01s.1,.73,.59,1.01h0l27.84,16.06Zm51.67-25.98l27.83-16.07c2.11-1.22,3.42-3.49,3.42-5.92v-32.14c0-.56-.32-.86-.58-1.01-.15-.09-.35-.17-.59-.17-.18,0-.37,.05-.58,.17h0l-27.83,16.08c-2.11,1.22-3.42,3.49-3.42,5.92v32.13c0,.56,.32,.86,.58,1.01,.27,.15,.69,.28,1.17,0Zm-2.83-81.02c-1.05-.61-2.24-.91-3.42-.91s-2.37,.3-3.42,.91l-27.84,16.07c-.48,.28-.58,.7-.58,1.01s.1,.73,.59,1.01l27.84,16.06c2.11,1.22,4.73,1.22,6.84,0l27.83-16.07c.48-.28,.58-.71,.58-1.01s-.1-.73-.58-1.01l-27.83-16.07Zm2.81,129.61l27.83-16.07c2.11-1.22,3.42-3.49,3.42-5.92v-32.14c0-.56-.32-.86-.58-1.01-.15-.09-.35-.17-.59-.17-.18,0-.37,.05-.58,.17l-27.83,16.08c-2.11,1.22-3.42,3.49-3.42,5.92v32.13c0,.56,.32,.86,.58,1.01,.27,.15,.69,.28,1.17,0Zm42.02-121.27l27.83-16.07c2.11-1.22,3.42-3.49,3.42-5.92V36.8c0-.56-.32-.86-.58-1.01-.15-.09-.35-.17-.59-.17-.18,0-.37,.05-.58,.17h0l-27.83,16.08c-2.11,1.22-3.42,3.49-3.42,5.92v32.13c0,.56,.32,.86,.58,1.01s.68,.28,1.17,0Zm-2.83-81.02c-1.05-.61-2.24-.91-3.42-.91s-2.37,.3-3.42,.91l-27.84,16.07c-.48,.28-.58,.71-.58,1.01s.1,.73,.58,1.01l27.84,16.06c2.11,1.22,4.73,1.22,6.84,0l27.83-16.07c.48-.28,.58-.7,.58-1.01s-.1-.73-.58-1.01l-27.83-16.07Zm2.81,129.61l27.83-16.07c2.11-1.22,3.42-3.49,3.42-5.92v-32.14c0-.56-.32-.86-.58-1.01-.15-.09-.35-.17-.59-.17-.18,0-.37,.04-.58,.17l-27.83,16.08c-2.11,1.22-3.42,3.49-3.42,5.92v32.13c0,.56,.32,.86,.58,1.01s.69,.28,1.17,0Zm.02,48.44l27.83-16.07c2.11-1.22,3.42-3.49,3.42-5.92v-32.14c0-.56-.32-.86-.58-1.01-.15-.09-.35-.17-.58-.17-.18,0-.38,.04-.58,.17h0l-27.83,16.08c-2.11,1.22-3.42,3.49-3.42,5.92v32.13c0,.56,.32,.86,.58,1.01s.68,.28,1.17,0Z"/><g><path class="cls-1" d="M449.21,132.27c0-10.89-2.11-20.26-6.09-28.22-3.98-7.96-9.72-14.05-16.75-18.39-7.03-4.33-15.22-6.44-24.36-6.44s-17.45,2.11-24.59,6.44c-7.14,4.33-12.76,10.42-16.86,18.39-4.1,7.96-6.09,17.21-6.09,27.99,0,16.4,4.33,29.04,13,38.06,8.67,8.9,20.49,13.47,35.48,13.47,7.26,0,13.94-1.29,20.03-3.86,6.09-2.58,11.24-6.21,15.46-10.77,4.22-4.57,7.26-9.95,9.13-15.93l-20.14-4.8c-1.99,5.04-5.15,9.13-9.49,12.18-4.33,3.04-9.13,4.57-14.29,4.57-7.26,0-13.12-2.69-17.68-8.08-3.75-4.45-5.97-10.77-6.67-19.21h70.03v-5.39h-.12Zm-69.45-11.48c.94-6.21,2.81-11.13,5.62-14.99,4.33-5.86,9.84-8.78,16.63-8.78s12.53,3.04,17.1,9.02c2.81,3.75,4.68,8.67,5.74,14.64h-45.09v.12Z"/><path class="cls-1" d="M609.76,115.88v64.64h-24.94v-61.83c0-6.21-1.52-11.13-4.57-14.64-3.04-3.51-7.14-5.39-12.3-5.39s-9.95,2.11-13.59,6.32c-3.75,4.22-5.5,9.84-5.5,16.86v58.67h-24.94v-61.83c0-6.21-1.53-11.13-4.69-14.64-3.16-3.51-7.15-5.39-12.18-5.39-5.5,0-10.07,2.11-13.7,6.32-3.63,4.22-5.39,9.84-5.39,16.86v58.67h-24.94V82.15h24.12v15.93c2.93-5.39,6.79-9.72,11.59-13.12,5.39-3.75,11.71-5.62,18.74-5.62,9.48,0,17.1,3.28,22.72,9.6,2.58,2.93,4.57,6.44,5.97,10.42,3.16-6.09,7.38-10.77,12.65-14.4,5.62-3.75,11.95-5.62,19.09-5.62,9.72,0,17.45,3.28,23.19,9.6,5.86,6.56,8.67,15.46,8.67,26.93Z"/><path class="cls-1" d="M823.86,82.15v98.37h-24.24v-16.63c-3.16,5.74-7.38,10.31-12.65,13.82-5.74,3.75-12.3,5.62-19.56,5.62-10.07,0-18.03-3.28-24.12-9.6-5.97-6.44-8.9-15.34-8.9-26.82V82.15h24.94v61.83c0,6.21,1.76,11.13,5.04,14.64,3.39,3.63,7.96,5.39,13.58,5.39,5.98,0,10.89-2.11,14.99-6.32,3.98-4.22,5.98-9.84,5.98-16.86v-58.67h24.94Z"/><path class="cls-1" d="M338.91,161.32c-2.34,.47-4.45,.59-6.32,.59-10.07,0-15.11-4.68-15.11-14.05v-46.02h28.81v-19.67h-28.81V48.25l-25.06,14.48v19.42h-17.92v19.67h17.92v47.78c0,10.77,2.93,18.85,8.67,24.24,5.74,5.39,13.82,8.08,24.12,8.08,3.75,0,7.61-.35,11.59-.94,3.98-.59,7.61-1.29,10.77-2.11l-2.34-18.74c-1.87,.47-3.98,.82-6.32,1.17Z"/><path class="cls-1" d="M716.46,102.88c-3.4-7.73-8.2-13.58-14.17-17.57-6.09-3.98-12.88-5.97-20.49-5.97-9.84,0-18.03,3.16-24.59,9.37-3.52,3.4-6.32,7.26-8.31,11.83v-18.39h-24.24V216.32l24.94-14.42v-37.55c1.76,3.75,3.98,7.03,6.79,9.84,6.21,6.09,14.29,9.13,24.13,9.13,7.61,0,14.4-1.99,20.61-5.97,6.09-3.98,10.89-9.84,14.52-17.57,3.63-7.73,5.51-17.21,5.74-28.46,.12-11.24-1.52-20.73-4.92-28.46Zm-20.5,28.46c-.23,11.01-2.34,19.09-6.44,24.24-4.1,5.15-9.72,7.73-17.1,7.73s-13-2.58-16.98-7.73c-3.86-5.15-5.85-13.23-5.85-24.24s2.11-19.09,6.21-24.24c4.22-5.15,9.96-7.73,17.33-7.73s13,2.58,17.1,7.73c4.1,5.15,5.97,13.23,5.74,24.24Z"/><path class="cls-1" d="M916.47,133.09c-4.8-4.8-12.41-8.2-22.83-10.19l-18.97-3.51c-4.8-.82-8.31-2.22-10.3-4.22-1.99-1.99-3.05-4.45-3.05-7.38,0-3.28,1.4-5.97,4.22-7.96,2.81-1.87,6.79-2.93,11.83-2.93,5.62,0,10.42,1.64,14.4,4.68,3.98,3.16,6.67,7.02,8.08,11.71l19.01-10.99c-2.76-5.77-7.01-10.66-12.69-14.77-7.61-5.5-17.33-8.2-29.04-8.2-12.41,0-22.25,2.81-29.28,8.67-7.14,5.74-10.65,13.35-10.65,22.72,0,7.96,2.34,14.17,7.02,18.85,4.57,4.68,12.3,8.08,22.95,10.31l18.15,3.63c5.03,1.05,8.55,2.46,10.66,4.22,1.99,1.76,3.04,3.98,3.04,6.79,0,3.16-1.52,5.86-4.45,8.08-2.81,2.11-7.26,3.28-13.12,3.28s-11.01-1.41-14.99-4.45c-4.07-2.91-6.98-6.96-8.97-12.06l-19.84,11.46c3.03,5.87,7.51,10.77,13.47,14.65,8.08,5.39,18.15,8.08,30.21,8.2,13.23,0,23.66-2.93,31.15-8.67,7.5-5.62,11.24-13.35,11.24-22.95,0-7.85-2.46-14.17-7.26-18.97Z"/></g></svg>