<svg width="32" height="32" viewBox="0 0 32 32" fill="none" xmlns="http://www.w3.org/2000/svg">
<g clip-path="url(#clip0_2_5)">
<rect width="32" height="32" fill="white"/>
<rect width="320" height="320" fill="url(#paint0_linear_2_5)"/>
<path d="M26.5313 5.20361C26.5313 4.53004 26.1693 3.90284 25.586 3.56605L21.9253 1.4526C21.342 1.11582 20.618 1.11582 20.0347 1.4526L16.374 3.56605C15.7907 3.90284 15.4287 4.53004 15.4287 5.20361V9.43052C15.4287 9.60379 15.4556 9.77218 15.5011 9.93488C15.3344 9.97718 15.1725 10.0414 15.0204 10.1293L11.3596 12.2428C10.7764 12.5795 10.4144 13.2067 10.4144 13.8803V18.1072C10.4144 18.2854 10.4404 18.4611 10.4884 18.6279C10.3216 18.6702 10.1589 18.7344 10.006 18.8223L6.34528 20.9357C5.76201 21.2725 5.4 21.8997 5.4 22.5733V26.8002C5.4 27.473 5.76201 28.101 6.34528 28.4378L10.006 30.5512C10.2972 30.7196 10.6242 30.8034 10.9513 30.8034C11.2783 30.8034 11.6053 30.7188 11.8965 30.5512L15.5573 28.4378C15.794 28.3011 15.9933 28.1164 16.1479 27.9C16.4131 27.8748 16.6734 27.7943 16.9109 27.6576L20.5716 25.5442C20.8092 25.4067 21.0093 25.2212 21.1639 25.0048C21.4282 24.9788 21.6886 24.8991 21.9253 24.7624L25.586 22.6489C26.1693 22.3122 26.5313 21.685 26.5313 21.0114V16.7845C26.5313 16.5103 26.4703 16.2443 26.3596 16.0019C26.4703 15.7595 26.5313 15.4935 26.5313 15.2193V10.9924C26.5313 10.7191 26.4703 10.4539 26.3604 10.2115C26.4703 9.96986 26.5313 9.70385 26.5313 9.43052V5.20361V5.20361Z" fill="#1E1E1E"/>
<path d="M11.5598 29.4237C11.528 29.405 11.4898 29.3692 11.4898 29.3025V25.4669C11.4898 25.1765 11.646 24.9056 11.8974 24.76L15.2197 22.8401C15.2449 22.8255 15.2677 22.8206 15.2896 22.8206C15.3173 22.8206 15.3417 22.8295 15.3596 22.8401C15.3913 22.8588 15.4295 22.8946 15.4295 22.9613V26.7978C15.4295 27.0882 15.2734 27.3591 15.0212 27.5047L11.6989 29.4229C11.6411 29.4563 11.5915 29.4416 11.5589 29.4229L11.5598 29.4237ZM10.5461 23.831C10.7975 23.9758 11.1107 23.9758 11.3621 23.831L14.6836 21.9136C14.7413 21.8802 14.7535 21.8298 14.7535 21.7923C14.7535 21.7549 14.7413 21.7045 14.6836 21.6711L11.3613 19.7529C11.2352 19.6805 11.0944 19.6439 10.9529 19.6439C10.8113 19.6439 10.6706 19.6805 10.5445 19.7529L7.22222 21.6711C7.16446 21.7045 7.15226 21.7549 7.15226 21.7923C7.15226 21.8298 7.16446 21.8802 7.22222 21.9136L10.5453 23.831H10.5461ZM16.7132 20.7299L20.0355 18.8117C20.2869 18.6661 20.4439 18.3952 20.4439 18.1048V14.2684C20.4439 14.2017 20.4057 14.1659 20.3739 14.1471C20.356 14.1366 20.3316 14.1276 20.304 14.1276C20.2828 14.1276 20.2592 14.1333 20.234 14.1471L16.9117 16.067C16.6604 16.2126 16.5042 16.4835 16.5042 16.7739V20.6095C16.5042 20.6762 16.5424 20.712 16.5741 20.7307C16.6059 20.7494 16.6563 20.7641 16.714 20.7307L16.7132 20.7299ZM16.3748 11.0591C16.2487 10.9867 16.108 10.9501 15.9664 10.9501C15.8249 10.9501 15.6842 10.9867 15.5581 11.0591L12.2358 12.9773C12.178 13.0107 12.1658 13.0611 12.1658 13.0986C12.1658 13.136 12.178 13.1864 12.2358 13.2198L15.5589 15.1372C15.8103 15.282 16.1234 15.2828 16.3748 15.1372L19.6963 13.2198C19.7541 13.1864 19.7663 13.136 19.7663 13.0986C19.7663 13.0611 19.7541 13.0107 19.6963 12.9773L16.374 11.0591H16.3748ZM16.7108 26.5293L20.0331 24.6111C20.2845 24.4655 20.4415 24.1946 20.4415 23.9042V20.0677C20.4415 20.001 20.4032 19.9652 20.3715 19.9465C20.3536 19.936 20.3292 19.927 20.3015 19.927C20.2804 19.927 20.2568 19.9327 20.2316 19.9465L16.9093 21.8664C16.6579 22.012 16.5009 22.2829 16.5009 22.5733V26.4089C16.5009 26.4756 16.5391 26.5114 16.5709 26.5301C16.6026 26.5488 16.653 26.5635 16.7108 26.5301V26.5293ZM21.7268 12.054L25.0491 10.1358C25.3005 9.9902 25.4575 9.71931 25.4575 9.42889V5.59246C25.4575 5.52576 25.4192 5.48996 25.3875 5.47125C25.3696 5.46068 25.3452 5.45173 25.3175 5.45173C25.2964 5.45173 25.2728 5.45742 25.2476 5.47125L21.9253 7.3911C21.6739 7.53671 21.5177 7.8076 21.5177 8.09802V11.9336C21.5177 12.0003 21.5559 12.0361 21.5877 12.0548C21.6194 12.0736 21.669 12.0882 21.7276 12.0548L21.7268 12.054ZM21.3884 2.38324C21.2623 2.31084 21.1215 2.27423 20.98 2.27423C20.8384 2.27423 20.6977 2.31084 20.5716 2.38324L17.2493 4.30145C17.1916 4.33481 17.1794 4.38524 17.1794 4.42266C17.1794 4.46008 17.1916 4.51052 17.2493 4.54387L20.5724 6.46127C20.8238 6.60689 21.137 6.60608 21.3884 6.46127L24.7099 4.54387C24.7676 4.51052 24.7798 4.46008 24.7798 4.42266C24.7798 4.38524 24.7676 4.33481 24.7099 4.30145L21.3876 2.38324H21.3884ZM21.7243 17.8534L25.0466 15.9352C25.298 15.7896 25.455 15.5187 25.455 15.2283V11.3918C25.455 11.3251 25.4168 11.2893 25.3851 11.2706C25.3672 11.2601 25.3428 11.2511 25.3151 11.2511C25.2939 11.2511 25.2704 11.2568 25.2451 11.2706L21.9228 13.1905C21.6715 13.3361 21.5145 13.607 21.5145 13.8974V17.733C21.5145 17.7997 21.5527 17.8355 21.5844 17.8542C21.6161 17.8729 21.6666 17.8876 21.7243 17.8542V17.8534ZM21.7268 23.6349L25.0491 21.7167C25.3005 21.5711 25.4575 21.3002 25.4575 21.0098V17.1733C25.4575 17.1066 25.4192 17.0708 25.3875 17.0521C25.3696 17.0416 25.3452 17.0326 25.3175 17.0326C25.2964 17.0326 25.2728 17.0383 25.2476 17.0521L21.9253 18.972C21.6739 19.1176 21.5177 19.3885 21.5177 19.6789V23.5145C21.5177 23.5812 21.5559 23.617 21.5877 23.6357C21.6194 23.6544 21.669 23.6691 21.7276 23.6357L21.7268 23.6349Z" fill="white"/>
</g>
<defs>
<linearGradient id="paint0_linear_2_5" x1="-2.38419e-06" y1="160" x2="320" y2="160" gradientUnits="userSpaceOnUse">
<stop stop-color="#FF7700"/>
<stop offset="1" stop-color="#C6BFFF"/>
</linearGradient>
<clipPath id="clip0_2_5">
<rect width="32" height="32" fill="white"/>
</clipPath>
</defs>
</svg>
